<?xml version="1.0" encoding="UTF-8"?>
<!DOCTYPE svg PUBLIC "-//W3C//DTD SVG 1.1//EN" "http://www.w3.org/Graphics/SVG/1.1/DTD/svg11.dtd">
<svg xmlns="http://www.w3.org/2000/svg" version="1.1" width="197px" height="162px" style="shape-rendering:geometricPrecision; text-rendering:geometricPrecision; image-rendering:optimizeQuality; fill-rule:evenodd; clip-rule:evenodd" xmlns:xlink="http://www.w3.org/1999/xlink">
<g><path style="opacity:0.857" fill="#040404" d="M 116.5,-0.5 C 116.833,-0.5 117.167,-0.5 117.5,-0.5C 118.522,6.79715 119.522,14.1305 120.5,21.5C 120.339,25.3558 120.006,29.1891 119.5,33C 121.792,34.1968 122.125,35.8635 120.5,38C 122.31,40.0187 122.31,42.352 120.5,45C 122.787,46.4272 123.12,48.2606 121.5,50.5C 123.734,51.7377 124.068,53.4043 122.5,55.5C 122.902,57.3002 123.569,58.9668 124.5,60.5C 123.833,60.5 123.167,60.5 122.5,60.5C 120.721,62.8364 119.721,65.6697 119.5,69C 120.438,72.7921 121.104,76.6254 121.5,80.5C 113.833,80.5 106.167,80.5 98.5,80.5C 98.5,79.1667 98.5,77.8333 98.5,76.5C 99.9434,72.3849 100.943,68.0516 101.5,63.5C 103.25,58.3846 104.584,53.0513 105.5,47.5C 106.784,39.7475 108.45,32.0808 110.5,24.5C 113.256,16.4699 115.256,8.13656 116.5,-0.5 Z"/></g>
<g><path style="opacity:0.18" fill="#727272" d="M 111.5,2.5 C 111.66,4.19919 111.494,5.86586 111,7.5C 110.329,8.25244 109.496,8.58577 108.5,8.5C 109.799,6.58772 110.799,4.58772 111.5,2.5 Z"/></g>
<g><path style="opacity:0.938" fill="#f3f3f3" d="M 111.5,1.5 C 112.5,1.5 113.5,1.5 114.5,1.5C 113.168,6.82096 111.834,12.1543 110.5,17.5C 106.882,28.8304 104.216,40.4971 102.5,52.5C 102.5,52.8333 102.5,53.1667 102.5,53.5C 99.2797,54.6405 96.2797,55.9738 93.5,57.5C 89.8508,60.3069 85.8508,60.9736 81.5,59.5C 81.8627,58.8165 82.1961,58.1499 82.5,57.5C 82.5569,56.391 82.8902,55.391 83.5,54.5C 86.5809,52.3262 88.5809,49.3262 89.5,45.5C 90.9313,44.2196 91.5979,42.5529 91.5,40.5C 92.5,40.5 93.5,40.5 94.5,40.5C 95.5544,36.0494 97.221,31.716 99.5,27.5C 99.2322,25.901 99.5655,24.5676 100.5,23.5C 101.708,22.7659 103.041,22.4326 104.5,22.5C 104.5,20.1667 104.5,17.8333 104.5,15.5C 104.5,14.8333 104.833,14.5 105.5,14.5C 107.969,13.3933 108.969,11.3933 108.5,8.5C 109.496,8.58577 110.329,8.25244 111,7.5C 111.494,5.86586 111.66,4.19919 111.5,2.5C 111.5,2.16667 111.5,1.83333 111.5,1.5 Z"/></g>
<g><path style="opacity:0.306" fill="#6a6a6a" d="M 108.5,8.5 C 108.969,11.3933 107.969,13.3933 105.5,14.5C 106.13,12.2504 107.13,10.2504 108.5,8.5 Z"/></g>
<g><path style="opacity:0.855" fill="#434343" d="M 113.5,-0.5 C 114.5,-0.5 115.5,-0.5 116.5,-0.5C 115.256,8.13656 113.256,16.4699 110.5,24.5C 110.5,22.1667 110.5,19.8333 110.5,17.5C 111.834,12.1543 113.168,6.82096 114.5,1.5C 113.5,1.5 112.5,1.5 111.5,1.5C 112.167,0.833333 112.833,0.166667 113.5,-0.5 Z"/></g>
<g><path style="opacity:0.769" fill="#818181" d="M 104.5,15.5 C 104.5,17.8333 104.5,20.1667 104.5,22.5C 103.041,22.4326 101.708,22.7659 100.5,23.5C 102.327,21.0273 103.66,18.3607 104.5,15.5 Z"/></g>
<g><path style="opacity:0.753" fill="#858585" d="M 110.5,17.5 C 110.5,19.8333 110.5,22.1667 110.5,24.5C 108.45,32.0808 106.784,39.7475 105.5,47.5C 104.687,49.2608 103.687,50.9275 102.5,52.5C 104.216,40.4971 106.882,28.8304 110.5,17.5 Z"/></g>
<g><path style="opacity:0.718" fill="#707070" d="M 99.5,27.5 C 97.221,31.716 95.5544,36.0494 94.5,40.5C 93.5,40.5 92.5,40.5 91.5,40.5C 91.5979,42.5529 90.9313,44.2196 89.5,45.5C 89.3433,44.1266 89.51,42.7932 90,41.5C 92.1407,38.5279 94.1407,35.5279 96,32.5C 96.3333,31.1667 96.6667,29.8333 97,28.5C 97.6708,27.7476 98.5041,27.4142 99.5,27.5 Z"/></g>
<g><path style="opacity:0.216" fill="#5e5e5e" d="M 89.5,45.5 C 88.5809,49.3262 86.5809,52.3262 83.5,54.5C 85.2373,52.2063 86.404,49.5396 87,46.5C 87.6708,45.7476 88.5041,45.4142 89.5,45.5 Z"/></g>
<g><path style="opacity:0.951" fill="#494949" d="M 105.5,47.5 C 104.584,53.0513 103.25,58.3846 101.5,63.5C 102.051,60.1933 102.384,56.8599 102.5,53.5C 102.5,53.1667 102.5,52.8333 102.5,52.5C 103.687,50.9275 104.687,49.2608 105.5,47.5 Z"/></g>
<g><path style="opacity:0.79" fill="#030303" d="M 80.5,59.5 C 80.5,60.5 80.5,61.5 80.5,62.5C 83.0021,62.2505 85.5021,61.9172 88,61.5C 89.6811,61.6083 90.8478,62.2749 91.5,63.5C 88.8122,65.5211 86.4789,67.8544 84.5,70.5C 82.2054,71.1355 80.5387,72.4689 79.5,74.5C 77.2512,75.0798 75.5846,76.4131 74.5,78.5C 55.3324,80.4463 35.9991,81.113 16.5,80.5C 19.1128,78.3436 22.1128,76.8436 25.5,76C 43.9821,71.2303 62.3154,65.7303 80.5,59.5 Z"/></g>
<g><path style="opacity:1" fill="#2d2d2d" d="M 97.5,60.5 C 96.5084,60.3284 95.8417,60.6618 95.5,61.5C 93.9382,61.7329 92.6049,62.3995 91.5,63.5C 90.8478,62.2749 89.6811,61.6083 88,61.5C 85.5021,61.9172 83.0021,62.2505 80.5,62.5C 80.5,61.5 80.5,60.5 80.5,59.5C 80.5,58.1667 81.1667,57.5 82.5,57.5C 82.1961,58.1499 81.8627,58.8165 81.5,59.5C 85.8508,60.9736 89.8508,60.3069 93.5,57.5C 95.5988,56.7691 97.5988,56.7691 99.5,57.5C 98.8075,58.5178 98.1408,59.5178 97.5,60.5 Z"/></g>
<g><path style="opacity:1" fill="#f4f4f4" d="M 97.5,60.5 C 98.5862,60.62 99.2528,61.2867 99.5,62.5C 98.6597,68.5699 97.6597,74.5699 96.5,80.5C 88.9809,80.825 81.6476,80.4916 74.5,79.5C 74.5,79.1667 74.5,78.8333 74.5,78.5C 75.5846,76.4131 77.2512,75.0798 79.5,74.5C 81.754,73.8763 83.4206,72.543 84.5,70.5C 88.4819,67.8482 92.1486,64.8482 95.5,61.5C 95.8417,60.6618 96.5084,60.3284 97.5,60.5 Z"/></g>
<g><path style="opacity:0.945" fill="#f2f2f2" d="M 122.5,60.5 C 123.167,60.5 123.833,60.5 124.5,60.5C 124.5,60.8333 124.5,61.1667 124.5,61.5C 135.166,65.9443 146.166,69.6109 157.5,72.5C 157.5,72.8333 157.5,73.1667 157.5,73.5C 162.776,76.2023 168.443,77.869 174.5,78.5C 174.5,79.1667 174.5,79.8333 174.5,80.5C 157.83,80.6666 141.163,80.4999 124.5,80C 123.726,75.6895 122.726,71.5228 121.5,67.5C 121.298,65.0504 121.631,62.717 122.5,60.5 Z"/></g>
<g><path style="opacity:1" fill="#7d7d7d" d="M 95.5,61.5 C 92.1486,64.8482 88.4819,67.8482 84.5,70.5C 86.4789,67.8544 88.8122,65.5211 91.5,63.5C 92.6049,62.3995 93.9382,61.7329 95.5,61.5 Z"/></g>
<g><path style="opacity:0.127" fill="#343434" d="M 124.5,61.5 C 136.362,64.5646 147.362,68.2313 157.5,72.5C 146.166,69.6109 135.166,65.9443 124.5,61.5 Z"/></g>
<g><path style="opacity:1" fill="#7b7b7b" d="M 84.5,70.5 C 83.4206,72.543 81.754,73.8763 79.5,74.5C 80.5387,72.4689 82.2054,71.1355 84.5,70.5 Z"/></g>
<g><path style="opacity:0.188" fill="#424242" d="M 157.5,73.5 C 164.206,74.4615 169.873,76.1281 174.5,78.5C 168.443,77.869 162.776,76.2023 157.5,73.5 Z"/></g>
<g><path style="opacity:0.803" fill="#9f9f9f" d="M 121.5,67.5 C 122.726,71.5228 123.726,75.6895 124.5,80C 141.163,80.4999 157.83,80.6666 174.5,80.5C 157.672,81.6617 140.672,81.8284 123.5,81C 122.139,76.6376 121.472,72.1376 121.5,67.5 Z"/></g>
<g><path style="opacity:1" fill="#686868" d="M 74.5,78.5 C 74.5,78.8333 74.5,79.1667 74.5,79.5C 73.9569,79.56 73.6236,79.8933 73.5,80.5C 81.544,80.8534 89.2106,81.8534 96.5,83.5C 95.8249,89.3772 94.8249,95.2105 93.5,101C 93.8333,101.833 94.1667,102.667 94.5,103.5C 97.8514,101.141 101.185,98.8081 104.5,96.5C 102.756,98.7504 100.756,100.917 98.5,103C 100.134,103.494 101.801,103.66 103.5,103.5C 99.3285,104.581 95.3285,106.247 91.5,108.5C 91.5,105.5 91.5,102.5 91.5,99.5C 93.1217,93.9159 94.4551,88.2492 95.5,82.5C 87.8261,82.3336 80.1594,82.5003 72.5,83C 71.9781,83.5613 71.6448,84.228 71.5,85C 72.9903,90.736 73.657,96.5693 73.5,102.5C 71.901,102.768 70.5676,102.434 69.5,101.5C 70.5,101.5 71.5,101.5 72.5,101.5C 71.9424,95.1545 71.2757,88.8211 70.5,82.5C 53.4869,82.1672 36.4869,82.5005 19.5,83.5C 20.9492,84.1719 22.2825,84.8386 23.5,85.5C 19.1486,86.467 16.8153,84.8004 16.5,80.5C 35.9991,81.113 55.3324,80.4463 74.5,78.5 Z"/></g>
<g><path style="opacity:1" fill="#9e9e9e" d="M 102.5,53.5 C 102.384,56.8599 102.051,60.1933 101.5,63.5C 100.943,68.0516 99.9434,72.3849 98.5,76.5C 97.5489,77.9187 97.2155,79.5853 97.5,81.5C 105.167,81.5 112.833,81.5 120.5,81.5C 120.5,82.5 120.5,83.5 120.5,84.5C 119.833,84.5 119.167,84.5 118.5,84.5C 115.402,83.179 111.902,82.5123 108,82.5C 104.085,82.5335 100.251,82.8668 96.5,83.5C 89.2106,81.8534 81.544,80.8534 73.5,80.5C 73.6236,79.8933 73.9569,79.56 74.5,79.5C 81.6476,80.4916 88.9809,80.825 96.5,80.5C 97.6597,74.5699 98.6597,68.5699 99.5,62.5C 99.2528,61.2867 98.5862,60.62 97.5,60.5C 98.1408,59.5178 98.8075,58.5178 99.5,57.5C 97.5988,56.7691 95.5988,56.7691 93.5,57.5C 96.2797,55.9738 99.2797,54.6405 102.5,53.5 Z"/></g>
<g><path style="opacity:0.812" fill="#585858" d="M 122.5,60.5 C 121.631,62.717 121.298,65.0504 121.5,67.5C 121.472,72.1376 122.139,76.6376 123.5,81C 140.672,81.8284 157.672,81.6617 174.5,80.5C 174.5,79.8333 174.5,79.1667 174.5,78.5C 177.013,79.2257 177.679,80.5591 176.5,82.5C 157.598,81.8662 138.931,82.5329 120.5,84.5C 120.5,83.5 120.5,82.5 120.5,81.5C 112.833,81.5 105.167,81.5 97.5,81.5C 97.2155,79.5853 97.5489,77.9187 98.5,76.5C 98.5,77.8333 98.5,79.1667 98.5,80.5C 106.167,80.5 113.833,80.5 121.5,80.5C 121.104,76.6254 120.438,72.7921 119.5,69C 119.721,65.6697 120.721,62.8364 122.5,60.5 Z"/></g>
<g><path style="opacity:0.939" fill="#f1f1f1" d="M 69.5,101.5 C 67.6264,100.715 65.6264,100.048 63.5,99.5C 56.3855,96.4596 49.0522,93.7929 41.5,91.5C 35.8179,88.8328 29.8179,86.8328 23.5,85.5C 22.2825,84.8386 20.9492,84.1719 19.5,83.5C 36.4869,82.5005 53.4869,82.1672 70.5,82.5C 71.2757,88.8211 71.9424,95.1545 72.5,101.5C 71.5,101.5 70.5,101.5 69.5,101.5 Z"/></g>
<g><path style="opacity:0.86" fill="#030303" d="M 91.5,99.5 C 86.7274,120.014 82.0607,140.681 77.5,161.5C 77.1667,161.5 76.8333,161.5 76.5,161.5C 75.232,159.33 75.232,157.163 76.5,155C 75.8333,154 75.1667,153 74.5,152C 74.6572,148.539 74.9906,145.039 75.5,141.5C 73.2303,140.407 72.897,138.907 74.5,137C 73.105,132.838 72.7717,128.671 73.5,124.5C 72.8333,123.833 72.1667,123.167 71.5,122.5C 71.7027,116.994 71.7027,111.827 71.5,107C 71.1036,105.103 70.1036,103.603 68.5,102.5C 66.3449,101.999 64.6782,100.999 63.5,99.5C 65.6264,100.048 67.6264,100.715 69.5,101.5C 70.5676,102.434 71.901,102.768 73.5,102.5C 73.657,96.5693 72.9903,90.736 71.5,85C 71.6448,84.228 71.9781,83.5613 72.5,83C 80.1594,82.5003 87.8261,82.3336 95.5,82.5C 94.4551,88.2492 93.1217,93.9159 91.5,99.5 Z"/></g>
<g><path style="opacity:1" fill="#f4f4f4" d="M 118.5,84.5 C 118.5,84.8333 118.5,85.1667 118.5,85.5C 116.205,86.1355 114.539,87.4689 113.5,89.5C 111.205,90.1355 109.539,91.4689 108.5,93.5C 106.596,93.7376 105.262,94.7376 104.5,96.5C 101.185,98.8081 97.8514,101.141 94.5,103.5C 94.1667,102.667 93.8333,101.833 93.5,101C 94.8249,95.2105 95.8249,89.3772 96.5,83.5C 100.251,82.8668 104.085,82.5335 108,82.5C 111.902,82.5123 115.402,83.179 118.5,84.5 Z"/></g>
<g><path style="opacity:0.795" fill="#060606" d="M 176.5,82.5 C 176.047,83.4584 175.381,84.2917 174.5,85C 157.302,90.5466 139.968,95.5466 122.5,100C 118.951,101.016 115.618,102.516 112.5,104.5C 112.5,103.5 112.5,102.5 112.5,101.5C 109.813,101.336 107.146,101.503 104.5,102C 103.944,102.383 103.611,102.883 103.5,103.5C 101.801,103.66 100.134,103.494 98.5,103C 100.756,100.917 102.756,98.7504 104.5,96.5C 105.262,94.7376 106.596,93.7376 108.5,93.5C 110.754,92.8763 112.421,91.543 113.5,89.5C 115.754,88.8763 117.421,87.543 118.5,85.5C 118.5,85.1667 118.5,84.8333 118.5,84.5C 119.167,84.5 119.833,84.5 120.5,84.5C 138.931,82.5329 157.598,81.8662 176.5,82.5 Z"/></g>
<g><path style="opacity:1" fill="#646464" d="M 118.5,85.5 C 117.421,87.543 115.754,88.8763 113.5,89.5C 114.539,87.4689 116.205,86.1355 118.5,85.5 Z"/></g>
<g><path style="opacity:0.108" fill="#3e3e3e" d="M 23.5,85.5 C 29.8179,86.8328 35.8179,88.8328 41.5,91.5C 35.7797,90.3157 30.1131,88.8157 24.5,87C 23.944,86.6174 23.6107,86.1174 23.5,85.5 Z"/></g>
<g><path style="opacity:1" fill="#6d6d6d" d="M 113.5,89.5 C 112.421,91.543 110.754,92.8763 108.5,93.5C 109.539,91.4689 111.205,90.1355 113.5,89.5 Z"/></g>
<g><path style="opacity:0.103" fill="#383838" d="M 41.5,91.5 C 49.0522,93.7929 56.3855,96.4596 63.5,99.5C 57.6944,98.4485 52.0278,96.7818 46.5,94.5C 44.3449,93.9986 42.6782,92.9986 41.5,91.5 Z"/></g>
<g><path style="opacity:0.447" fill="#575757" d="M 112.5,104.5 C 112.158,105.338 111.492,105.672 110.5,105.5C 111.905,103.547 111.239,102.547 108.5,102.5C 106.793,102.728 105.126,103.062 103.5,103.5C 103.611,102.883 103.944,102.383 104.5,102C 107.146,101.503 109.813,101.336 112.5,101.5C 112.5,102.5 112.5,103.5 112.5,104.5 Z"/></g>
<g><path style="opacity:0.926" fill="#ededed" d="M 110.5,105.5 C 110.768,107.099 110.434,108.432 109.5,109.5C 108.279,110.028 107.113,110.695 106,111.5C 103.4,116.719 101.234,122.053 99.5,127.5C 96.4098,128.665 95.0764,130.998 95.5,134.5C 94.0541,136.58 93.0541,138.913 92.5,141.5C 92.0431,142.298 91.3764,142.631 90.5,142.5C 89.0687,143.78 88.4021,145.447 88.5,147.5C 88.5,148.167 88.1667,148.5 87.5,148.5C 85.744,149.552 85.0773,151.219 85.5,153.5C 84.5,153.5 83.5,153.5 82.5,153.5C 83.2436,149.881 83.577,146.215 83.5,142.5C 86.0262,133.526 88.0262,124.526 89.5,115.5C 90.9238,113.485 91.5905,111.152 91.5,108.5C 95.3285,106.247 99.3285,104.581 103.5,103.5C 105.126,103.062 106.793,102.728 108.5,102.5C 111.239,102.547 111.905,103.547 110.5,105.5 Z"/></g>
<g><path style="opacity:0.863" fill="#8f8f8f" d="M 91.5,108.5 C 91.5905,111.152 90.9238,113.485 89.5,115.5C 89.4095,112.848 90.0762,110.515 91.5,108.5 Z"/></g>
<g><path style="opacity:0.067" fill="#4d4d4d" d="M 109.5,109.5 C 105.661,115.309 102.328,121.309 99.5,127.5C 101.234,122.053 103.4,116.719 106,111.5C 107.113,110.695 108.279,110.028 109.5,109.5 Z"/></g>
<g><path style="opacity:0.031" fill="#494949" d="M 99.5,127.5 C 97.8964,129.711 96.5631,132.044 95.5,134.5C 95.0764,130.998 96.4098,128.665 99.5,127.5 Z"/></g>
<g><path style="opacity:0.816" fill="#3d3d3d" d="M 91.5,99.5 C 91.5,102.5 91.5,105.5 91.5,108.5C 90.0762,110.515 89.4095,112.848 89.5,115.5C 88.0262,124.526 86.0262,133.526 83.5,142.5C 81.4207,147.878 80.0873,153.544 79.5,159.5C 80.5,159.5 81.5,159.5 82.5,159.5C 81.8333,160.167 81.1667,160.833 80.5,161.5C 79.5,161.5 78.5,161.5 77.5,161.5C 82.0607,140.681 86.7274,120.014 91.5,99.5 Z"/></g>
<g><path style="opacity:0.055" fill="#484848" d="M 90.5,142.5 C 90.5979,144.553 89.9313,146.22 88.5,147.5C 88.4021,145.447 89.0687,143.78 90.5,142.5 Z"/></g>
<g><path style="opacity:0.212" fill="#535353" d="M 87.5,148.5 C 86.9759,150.306 86.3092,151.972 85.5,153.5C 85.0773,151.219 85.744,149.552 87.5,148.5 Z"/></g>
<g><path style="opacity:0.753" fill="#a1a1a1" d="M 83.5,142.5 C 83.577,146.215 83.2436,149.881 82.5,153.5C 83.5,153.5 84.5,153.5 85.5,153.5C 83.9876,155.191 82.9876,157.191 82.5,159.5C 81.5,159.5 80.5,159.5 79.5,159.5C 80.0873,153.544 81.4207,147.878 83.5,142.5 Z"/></g>
</svg>
