<?xml version="1.0" encoding="UTF-8"?>
<!DOCTYPE svg PUBLIC "-//W3C//DTD SVG 1.1//EN" "http://www.w3.org/Graphics/SVG/1.1/DTD/svg11.dtd">
<svg xmlns="http://www.w3.org/2000/svg" version="1.1" width="450px" height="371px" style="shape-rendering:geometricPrecision; text-rendering:geometricPrecision; image-rendering:optimizeQuality; fill-rule:evenodd; clip-rule:evenodd" xmlns:xlink="http://www.w3.org/1999/xlink">
<g><path style="opacity:0.851" fill="#000000" d="M 266.5,-0.5 C 267.833,-0.5 269.167,-0.5 270.5,-0.5C 271.454,2.41751 272.121,5.41751 272.5,8.5C 271.089,11.9598 270.422,15.6264 270.5,19.5C 271.873,19.3433 273.207,19.51 274.5,20C 273.801,23.7998 273.135,27.6331 272.5,31.5C 273.993,33.3636 274.66,35.5303 274.5,38C 273.831,41.4995 273.664,44.9995 274,48.5C 274.333,47.1667 274.667,45.8333 275,44.5C 275.5,46.5 276,48.5 276.5,50.5C 275.245,53.0134 274.578,55.6801 274.5,58.5C 275.871,61.3625 276.871,64.3625 277.5,67.5C 277.746,70.5075 276.746,73.0075 274.5,75C 274.867,77.2442 275.867,77.7442 277.5,76.5C 277.833,77.3333 278.167,78.1667 278.5,79C 277.116,85.006 277.449,90.8394 279.5,96.5C 278.642,99.8517 278.142,103.185 278,106.5C 278.71,105.027 279.876,104.36 281.5,104.5C 281.755,108.401 281.088,112.068 279.5,115.5C 280.954,118.978 281.954,122.645 282.5,126.5C 282.321,129.191 281.321,131.525 279.5,133.5C 280.391,134.59 281.391,134.59 282.5,133.5C 283.386,134.325 283.719,135.325 283.5,136.5C 278.996,136.879 276.663,139.212 276.5,143.5C 279.447,158.021 281.447,172.688 282.5,187.5C 321.5,187.5 360.5,187.5 399.5,187.5C 399.253,188.876 397.919,189.71 395.5,190C 398.817,190.498 402.15,190.665 405.5,190.5C 399.651,196.651 392.317,199.484 383.5,199C 383.833,199.333 384.167,199.667 384.5,200C 383.377,201.044 382.044,201.71 380.5,202C 376.459,202.173 372.459,202.673 368.5,203.5C 369.55,205.102 368.883,205.935 366.5,206C 361.896,207.061 357.229,207.727 352.5,208C 354.301,208.317 354.634,208.984 353.5,210C 348.544,210.998 343.544,211.831 338.5,212.5C 338.709,213.086 339.043,213.586 339.5,214C 334.017,215.954 328.351,216.954 322.5,217C 323.458,218.147 323.125,219.147 321.5,220C 317.5,220.333 313.5,220.667 309.5,221C 308.663,222.011 308.33,223.178 308.5,224.5C 303.492,225.001 298.492,225.668 293.5,226.5C 293.023,227.478 292.357,228.311 291.5,229C 287.5,229.333 283.5,229.667 279.5,230C 278.939,231.676 277.939,233.009 276.5,234C 272.459,234.173 268.459,234.673 264.5,235.5C 262.788,237.853 260.455,239.187 257.5,239.5C 258.575,237.144 258.575,234.811 257.5,232.5C 256.583,233.127 255.583,233.461 254.5,233.5C 245.449,235.197 236.449,238.03 227.5,242C 220.72,243.528 214.053,245.361 207.5,247.5C 201.443,272.16 195.276,296.826 189,321.5C 187.014,335.615 184.514,349.615 181.5,363.5C 181.294,365.549 180.461,365.883 179,364.5C 177.872,366.345 177.372,368.345 177.5,370.5C 176.5,370.5 175.5,370.5 174.5,370.5C 174.287,367.525 173.287,364.858 171.5,362.5C 172.064,359.623 173.064,356.623 174.5,353.5C 174.38,350.936 173.047,349.436 170.5,349C 170.959,344.99 171.959,341.157 173.5,337.5C 172.726,336.289 171.893,336.289 171,337.5C 170.077,335.966 169.577,334.299 169.5,332.5C 171.019,329.399 171.685,326.066 171.5,322.5C 170.167,322.5 168.833,322.5 167.5,322.5C 168.853,319.907 169.519,317.073 169.5,314C 168.818,310.455 167.818,306.955 166.5,303.5C 167.217,301.172 168.217,299.005 169.5,297C 168.863,295.287 167.863,295.121 166.5,296.5C 166.167,295.5 165.833,294.5 165.5,293.5C 166.266,285.895 166.266,279.728 165.5,275C 164.809,270.942 163.809,266.942 162.5,263C 162.826,260.516 163.826,258.349 165.5,256.5C 164.917,254.998 164.084,253.665 163,252.5C 162.237,255.063 161.737,255.063 161.5,252.5C 162.102,248.141 162.768,243.808 163.5,239.5C 162.753,239.264 161.92,238.93 161,238.5C 159.666,237.122 159.499,235.789 160.5,234.5C 165.271,233.247 167.271,230.08 166.5,225C 165.727,215.495 164.893,205.995 164,196.5C 163.367,192.791 162.2,189.291 160.5,186C 122.168,185.5 83.8348,185.333 45.5,185.5C 45.9175,184.778 46.5842,184.278 47.5,184C 44.854,183.503 42.1873,183.336 39.5,183.5C 41.2214,181.306 43.5547,180.139 46.5,180C 42.5,179.333 42.5,178.667 46.5,178C 51.1511,177.101 55.8178,176.268 60.5,175.5C 59.45,173.898 60.1167,173.065 62.5,173C 67.1903,172.497 71.857,171.83 76.5,171C 75.6548,169.442 76.3215,168.442 78.5,168C 82.5,167.667 86.5,167.333 90.5,167C 91.1667,166 91.8333,165 92.5,164C 97.1042,162.939 101.771,162.273 106.5,162C 105.655,160.442 106.321,159.442 108.5,159C 112.541,158.827 116.541,158.327 120.5,157.5C 120.291,156.914 119.957,156.414 119.5,156C 120.833,155.333 122.167,154.667 123.5,154C 127.833,153.667 132.167,153.333 136.5,153C 134.109,152.309 134.109,151.309 136.5,150C 140.833,149.667 145.167,149.333 149.5,149C 150.641,148.259 150.641,147.425 149.5,146.5C 155.039,144.954 160.706,144.12 166.5,144C 164.109,143.309 164.109,142.309 166.5,141C 171.202,140.828 175.868,140.328 180.5,139.5C 179.477,137.105 180.477,136.105 183.5,136.5C 183.523,138.6 182.856,140.433 181.5,142C 181.802,143.88 182.469,144.38 183.5,143.5C 185.527,143.662 187.527,143.495 189.5,143C 203.172,138.336 216.839,133.836 230.5,129.5C 231.209,128.596 232.209,128.263 233.5,128.5C 242.878,93.8603 250.712,58.8603 257,23.5C 259.746,17.3468 261.912,11.0135 263.5,4.5C 264.222,4.91753 264.722,5.5842 265,6.5C 265.662,4.18732 266.162,1.85398 266.5,-0.5 Z"/></g>
<g><path style="opacity:0.004" fill="#000000" d="M 256.5,2.5 C 257.833,3.16667 257.833,3.16667 256.5,2.5 Z"/></g>
<g><path style="opacity:0.275" fill="#4f4f4f" d="M 258.5,-0.5 C 261.167,-0.5 263.833,-0.5 266.5,-0.5C 266.162,1.85398 265.662,4.18732 265,6.5C 264.722,5.5842 264.222,4.91753 263.5,4.5C 262.833,4.83333 262.167,5.16667 261.5,5.5C 260.791,4.59603 259.791,4.26269 258.5,4.5C 258.5,2.83333 258.5,1.16667 258.5,-0.5 Z"/></g>
<g><path style="opacity:0.976" fill="#fcfcfc" d="M 263.5,4.5 C 261.912,11.0135 259.746,17.3468 257,23.5C 250.712,58.8603 242.878,93.8603 233.5,128.5C 232.209,128.263 231.209,128.596 230.5,129.5C 216.839,133.836 203.172,138.336 189.5,143C 187.527,143.495 185.527,143.662 183.5,143.5C 184.114,141.717 185.28,140.384 187,139.5C 187.579,138.072 187.412,136.738 186.5,135.5C 187.167,135.5 187.5,135.167 187.5,134.5C 188.675,134.719 189.675,134.386 190.5,133.5C 190.942,132.261 191.609,131.261 192.5,130.5C 193.117,130.389 193.617,130.056 194,129.5C 194.333,127.5 194.667,125.5 195,123.5C 196.667,122.167 198.333,120.833 200,119.5C 202.113,116.519 203.613,113.186 204.5,109.5C 205.672,109.081 206.672,108.415 207.5,107.5C 208.906,103.229 209.906,98.8958 210.5,94.5C 210.5,94.1667 210.5,93.8333 210.5,93.5C 212.229,92.8825 213.729,91.8825 215,90.5C 215.395,86.9811 216.395,83.6478 218,80.5C 219.892,79.87 221.559,78.87 223,77.5C 223.314,73.2181 224.48,69.2181 226.5,65.5C 226.5,65.1667 226.5,64.8333 226.5,64.5C 227.496,64.5858 228.329,64.2524 229,63.5C 230.15,60.5823 230.983,57.5823 231.5,54.5C 231.328,53.5084 231.662,52.8417 232.5,52.5C 234.679,52.16 236.512,51.16 238,49.5C 239.158,44.8824 239.992,40.2158 240.5,35.5C 241.167,35.5 241.5,35.1667 241.5,34.5C 242.167,34.5 242.5,34.1667 242.5,33.5C 244.484,33.6168 246.15,32.9501 247.5,31.5C 248.487,28.2317 248.82,24.8984 248.5,21.5C 249.167,21.5 249.5,21.1667 249.5,20.5C 249.5,20.1667 249.5,19.8333 249.5,19.5C 253.691,19.6179 255.857,17.6179 256,13.5C 256.667,12.1667 257.333,12.1667 258,13.5C 259.083,10.7334 260.25,8.06676 261.5,5.5C 262.167,5.16667 262.833,4.83333 263.5,4.5 Z"/></g>
<g><path style="opacity:0.378" fill="#c2c2c2" d="M 258.5,4.5 C 259.791,4.26269 260.791,4.59603 261.5,5.5C 260.25,8.06676 259.083,10.7334 258,13.5C 257.333,12.1667 256.667,12.1667 256,13.5C 255.857,17.6179 253.691,19.6179 249.5,19.5C 249.5,19.1667 249.5,18.8333 249.5,18.5C 250.794,17.7101 251.961,16.7101 253,15.5C 254.506,12.0898 256.006,8.75647 257.5,5.5C 258.167,5.5 258.5,5.16667 258.5,4.5 Z"/></g>
<g><path style="opacity:0.11" fill="#383838" d="M 257.5,5.5 C 256.006,8.75647 254.506,12.0898 253,15.5C 251.961,16.7101 250.794,17.7101 249.5,18.5C 250.876,14.9624 252.043,11.2957 253,7.5C 254.019,6.31277 255.186,5.31277 256.5,4.5C 257.107,4.62358 257.44,4.95691 257.5,5.5 Z"/></g>
<g><path style="opacity:0.004" fill="#000000" d="M 272.5,15.5 C 273.289,15.7828 273.956,16.2828 274.5,17C 273.184,17.5281 272.517,17.0281 272.5,15.5 Z"/></g>
<g><path style="opacity:0.043" fill="#212121" d="M 249.5,20.5 C 249.5,21.1667 249.167,21.5 248.5,21.5C 247.883,21.6107 247.383,21.944 247,22.5C 246.587,25.2321 245.92,27.8987 245,30.5C 244.184,31.8228 243.017,32.4894 241.5,32.5C 242.532,28.7604 243.865,25.0938 245.5,21.5C 246.689,20.5713 248.022,20.238 249.5,20.5 Z"/></g>
<g><path style="opacity:0.596" fill="#b5b4b5" d="M 248.5,21.5 C 248.82,24.8984 248.487,28.2317 247.5,31.5C 246.15,32.9501 244.484,33.6168 242.5,33.5C 241.833,33.5 241.5,33.1667 241.5,32.5C 243.017,32.4894 244.184,31.8228 245,30.5C 245.92,27.8987 246.587,25.2321 247,22.5C 247.383,21.944 247.883,21.6107 248.5,21.5 Z"/></g>
<g><path style="opacity:0.014" fill="#0a0a0a" d="M 241.5,34.5 C 241.5,35.1667 241.167,35.5 240.5,35.5C 239.136,37.22 238.136,39.22 237.5,41.5C 237.043,42.2975 236.376,42.6309 235.5,42.5C 235.929,38.9756 237.429,35.9756 240,33.5C 240.383,34.056 240.883,34.3893 241.5,34.5 Z"/></g>
<g><path style="opacity:0.341" fill="#878787" d="M 240.5,35.5 C 239.992,40.2158 239.158,44.8824 238,49.5C 236.512,51.16 234.679,52.16 232.5,52.5C 233.315,51.1634 234.482,50.1634 236,49.5C 236.78,47.6131 236.613,45.9464 235.5,44.5C 235.5,43.8333 235.5,43.1667 235.5,42.5C 236.376,42.6309 237.043,42.2975 237.5,41.5C 238.136,39.22 239.136,37.22 240.5,35.5 Z"/></g>
<g><path style="opacity:0.041" fill="#2e2e2e" d="M 235.5,44.5 C 236.613,45.9464 236.78,47.6131 236,49.5C 234.482,50.1634 233.315,51.1634 232.5,52.5C 231.662,52.8417 231.328,53.5084 231.5,54.5C 229.98,57.5609 228.313,60.5609 226.5,63.5C 226.55,59.3062 227.383,55.3062 229,51.5C 232.051,49.9501 234.218,47.6168 235.5,44.5 Z"/></g>
<g><path style="opacity:0.173" fill="#707070" d="M 231.5,54.5 C 230.983,57.5823 230.15,60.5823 229,63.5C 228.329,64.2524 227.496,64.5858 226.5,64.5C 226.5,64.1667 226.5,63.8333 226.5,63.5C 228.313,60.5609 229.98,57.5609 231.5,54.5 Z"/></g>
<g><path style="opacity:0.011" fill="#222222" d="M 226.5,63.5 C 226.5,63.8333 226.5,64.1667 226.5,64.5C 226.5,64.8333 226.5,65.1667 226.5,65.5C 224.983,65.5106 223.816,66.1772 223,67.5C 222.667,70.5 222.333,73.5 222,76.5C 220.509,78.0037 218.676,78.8371 216.5,79C 215.771,81.0581 214.771,82.8914 213.5,84.5C 212.138,79.2128 214.138,76.5461 219.5,76.5C 219.336,73.8127 219.503,71.146 220,68.5C 221.438,67.0997 222.271,65.433 222.5,63.5C 223.833,63.5 225.167,63.5 226.5,63.5 Z"/></g>
<g><path style="opacity:0.114" fill="#838383" d="M 226.5,65.5 C 224.48,69.2181 223.314,73.2181 223,77.5C 221.559,78.87 219.892,79.87 218,80.5C 216.395,83.6478 215.395,86.9811 215,90.5C 213.729,91.8825 212.229,92.8825 210.5,93.5C 210.5,92.8333 210.5,92.1667 210.5,91.5C 212.975,90.3126 213.975,88.3126 213.5,85.5C 213.5,85.1667 213.5,84.8333 213.5,84.5C 214.771,82.8914 215.771,81.0581 216.5,79C 218.676,78.8371 220.509,78.0037 222,76.5C 222.333,73.5 222.667,70.5 223,67.5C 223.816,66.1772 224.983,65.5106 226.5,65.5 Z"/></g>
<g><path style="opacity:0.018" fill="#070707" d="M 213.5,85.5 C 213.975,88.3126 212.975,90.3126 210.5,91.5C 210.025,88.6874 211.025,86.6874 213.5,85.5 Z"/></g>
<g><path style="opacity:0.024" fill="#2f2f2f" d="M 210.5,93.5 C 210.5,93.8333 210.5,94.1667 210.5,94.5C 209.504,94.4142 208.671,94.7476 208,95.5C 207.333,98.1667 206.667,100.833 206,103.5C 205.583,104.756 204.75,105.423 203.5,105.5C 203.899,100.139 205.399,95.1385 208,90.5C 208.852,91.5707 209.685,92.5707 210.5,93.5 Z"/></g>
<g><path style="opacity:0.722" fill="#c2c2c2" d="M 210.5,94.5 C 209.906,98.8958 208.906,103.229 207.5,107.5C 206.672,108.415 205.672,109.081 204.5,109.5C 203.613,113.186 202.113,116.519 200,119.5C 198.333,120.833 196.667,122.167 195,123.5C 194.667,125.5 194.333,127.5 194,129.5C 193.617,130.056 193.117,130.389 192.5,130.5C 192.337,128.143 192.503,125.81 193,123.5C 197.205,120.253 199.538,115.92 200,110.5C 201.412,108.935 202.579,107.269 203.5,105.5C 204.75,105.423 205.583,104.756 206,103.5C 206.667,100.833 207.333,98.1667 208,95.5C 208.671,94.7476 209.504,94.4142 210.5,94.5 Z"/></g>
<g><path style="opacity:0.02" fill="#343434" d="M 203.5,105.5 C 202.579,107.269 201.412,108.935 200,110.5C 199.538,115.92 197.205,120.253 193,123.5C 192.503,125.81 192.337,128.143 192.5,130.5C 191.609,131.261 190.942,132.261 190.5,133.5C 189.675,134.386 188.675,134.719 187.5,134.5C 188.518,129.443 190.018,124.443 192,119.5C 192.317,121.301 192.984,121.634 194,120.5C 195.92,116.312 197.42,111.979 198.5,107.5C 199.535,104.734 201.201,104.068 203.5,105.5 Z"/></g>
<g><path style="opacity:1" fill="#fbfbfb" d="M 230.5,129.5 C 231.5,129.5 232.5,129.5 233.5,129.5C 230.683,141.389 228.183,153.389 226,165.5C 224.397,172.343 222.231,179.01 219.5,185.5C 201.179,186.5 182.845,186.833 164.5,186.5C 185.132,170.39 205.132,153.223 224.5,135C 227.711,134.268 229.711,132.434 230.5,129.5 Z"/></g>
<g><path style="opacity:0.004" fill="#000000" d="M 183.5,134.5 C 183.897,133.475 184.563,133.308 185.5,134C 184.906,134.464 184.239,134.631 183.5,134.5 Z"/></g>
<g><path style="opacity:0.573" fill="#494949" d="M 283.5,136.5 C 284.625,137.348 284.625,138.348 283.5,139.5C 280.873,139.79 279.206,141.124 278.5,143.5C 277.833,143.5 277.167,143.5 276.5,143.5C 276.663,139.212 278.996,136.879 283.5,136.5 Z"/></g>
<g><path style="opacity:0.015" fill="#040404" d="M 284.5,140.5 C 288.555,140.176 292.555,140.509 296.5,141.5C 297.981,142.944 297.648,143.611 295.5,143.5C 295.389,142.883 295.056,142.383 294.5,142C 290.975,141.821 287.641,141.321 284.5,140.5 Z"/></g>
<g><path style="opacity:0.373" fill="#333333" d="M 186.5,135.5 C 187.412,136.738 187.579,138.072 187,139.5C 185.28,140.384 184.114,141.717 183.5,143.5C 182.469,144.38 181.802,143.88 181.5,142C 182.856,140.433 183.523,138.6 183.5,136.5C 184.209,135.596 185.209,135.263 186.5,135.5 Z"/></g>
<g><path style="opacity:0.027" fill="#4d4d4d" d="M 283.5,140.5 C 283.833,140.5 284.167,140.5 284.5,140.5C 287.641,141.321 290.975,141.821 294.5,142C 295.056,142.383 295.389,142.883 295.5,143.5C 295.5,143.833 295.5,144.167 295.5,144.5C 291.881,143.82 288.214,143.32 284.5,143C 283.748,142.329 283.414,141.496 283.5,140.5 Z"/></g>
<g><path style="opacity:0.971" fill="#fcfcfc" d="M 309.5,151.5 C 309.5,152.167 309.833,152.5 310.5,152.5C 312.988,154.388 315.988,155.055 319.5,154.5C 319.33,155.822 319.663,156.989 320.5,158C 324.5,158.333 328.5,158.667 332.5,159C 333.257,160.512 334.257,161.846 335.5,163C 338.817,163.498 342.15,163.665 345.5,163.5C 345.33,164.822 345.663,165.989 346.5,167C 350.152,167.499 353.818,167.665 357.5,167.5C 357.5,169.5 357.5,171.5 357.5,173.5C 361.5,173.5 365.5,173.5 369.5,173.5C 369.286,175.144 369.62,176.644 370.5,178C 374.152,178.499 377.818,178.665 381.5,178.5C 381.579,179.93 381.246,181.264 380.5,182.5C 386.89,183.73 393.223,185.063 399.5,186.5C 399.5,186.833 399.5,187.167 399.5,187.5C 360.5,187.5 321.5,187.5 282.5,187.5C 281.447,172.688 279.447,158.021 276.5,143.5C 277.167,143.5 277.833,143.5 278.5,143.5C 279.735,143.279 280.735,142.612 281.5,141.5C 282.429,142.689 282.762,144.022 282.5,145.5C 286.833,145.5 291.167,145.5 295.5,145.5C 295.33,146.822 295.663,147.989 296.5,149C 301.123,148.969 305.457,149.802 309.5,151.5 Z"/></g>
<g><path style="opacity:0.388" fill="#b5b5b5" d="M 283.5,139.5 C 283.5,139.833 283.5,140.167 283.5,140.5C 283.414,141.496 283.748,142.329 284.5,143C 288.214,143.32 291.881,143.82 295.5,144.5C 295.833,144.5 296.167,144.5 296.5,144.5C 296.5,145.5 296.5,146.5 296.5,147.5C 301.036,147.15 305.369,147.817 309.5,149.5C 309.5,150.167 309.5,150.833 309.5,151.5C 305.457,149.802 301.123,148.969 296.5,149C 295.663,147.989 295.33,146.822 295.5,145.5C 291.167,145.5 286.833,145.5 282.5,145.5C 282.762,144.022 282.429,142.689 281.5,141.5C 280.735,142.612 279.735,143.279 278.5,143.5C 279.206,141.124 280.873,139.79 283.5,139.5 Z"/></g>
<g><path style="opacity:0.065" fill="#2a2a2a" d="M 296.5,144.5 C 301.777,143.931 306.777,144.765 311.5,147C 310.244,147.417 309.577,148.25 309.5,149.5C 305.369,147.817 301.036,147.15 296.5,147.5C 296.5,146.5 296.5,145.5 296.5,144.5 Z"/></g>
<g><path style="opacity:0.013" fill="#090909" d="M 310.5,149.5 C 314.833,149.5 319.167,149.5 323.5,149.5C 323.715,151.179 323.048,152.179 321.5,152.5C 321.189,151.522 320.522,150.855 319.5,150.5C 316.039,152.188 313.039,151.854 310.5,149.5 Z"/></g>
<g><path style="opacity:0.015" fill="#000000" d="M 322.5,153.5 C 326.182,153.335 329.848,153.501 333.5,154C 334.416,154.278 335.082,154.778 335.5,155.5C 331.818,155.665 328.152,155.499 324.5,155C 323.584,154.722 322.918,154.222 322.5,153.5 Z"/></g>
<g><path style="opacity:0.016" fill="#454545" d="M 309.5,149.5 C 309.833,149.5 310.167,149.5 310.5,149.5C 313.039,151.854 316.039,152.188 319.5,150.5C 320.522,150.855 321.189,151.522 321.5,152.5C 321.5,153.167 321.833,153.5 322.5,153.5C 322.918,154.222 323.584,154.722 324.5,155C 328.152,155.499 331.818,155.665 335.5,155.5C 336.116,156.202 336.116,157.202 335.5,158.5C 335.5,159.167 335.5,159.833 335.5,160.5C 334.733,159.828 334.066,158.995 333.5,158C 329.833,157.667 326.167,157.333 322.5,157C 321.743,155.488 320.743,154.154 319.5,153C 316.518,152.502 313.518,152.335 310.5,152.5C 309.833,152.5 309.5,152.167 309.5,151.5C 309.5,150.833 309.5,150.167 309.5,149.5 Z"/></g>
<g><path style="opacity:0.012" fill="#0f0f0f" d="M 335.5,158.5 C 339.846,158.334 344.179,158.501 348.5,159C 349.833,160 349.833,161 348.5,162C 353.43,161.955 358.097,162.955 362.5,165C 362.043,165.414 361.709,165.914 361.5,166.5C 365.041,167.2 368.541,167.867 372,168.5C 372.414,168.043 372.914,167.709 373.5,167.5C 374.731,168.651 374.731,169.817 373.5,171C 377.813,171.735 382.147,172.235 386.5,172.5C 386.5,173.833 386.5,175.167 386.5,176.5C 390.897,176.425 395.23,176.925 399.5,178C 400.598,178.77 400.598,179.603 399.5,180.5C 399.167,180.5 398.833,180.5 398.5,180.5C 394.627,178.57 390.294,177.903 385.5,178.5C 385.714,176.856 385.38,175.356 384.5,174C 380.49,173.643 376.49,173.81 372.5,174.5C 372.102,168.619 369.102,166.953 363.5,169.5C 361.886,169.197 360.552,168.53 359.5,167.5C 359.389,166.883 359.056,166.383 358.5,166C 354.789,165.825 351.122,165.325 347.5,164.5C 347.023,163.522 346.357,162.689 345.5,162C 341.975,161.821 338.641,161.321 335.5,160.5C 335.5,159.833 335.5,159.167 335.5,158.5 Z"/></g>
<g><path style="opacity:0.349" fill="#a4a4a4" d="M 310.5,152.5 C 313.518,152.335 316.518,152.502 319.5,153C 320.743,154.154 321.743,155.488 322.5,157C 326.167,157.333 329.833,157.667 333.5,158C 334.066,158.995 334.733,159.828 335.5,160.5C 338.641,161.321 341.975,161.821 345.5,162C 346.357,162.689 347.023,163.522 347.5,164.5C 351.122,165.325 354.789,165.825 358.5,166C 359.056,166.383 359.389,166.883 359.5,167.5C 359.5,168.5 359.5,169.5 359.5,170.5C 363.226,170.177 366.893,170.511 370.5,171.5C 371.127,172.417 371.461,173.417 371.5,174.5C 370.833,174.167 370.167,173.833 369.5,173.5C 365.5,173.5 361.5,173.5 357.5,173.5C 357.5,171.5 357.5,169.5 357.5,167.5C 353.818,167.665 350.152,167.499 346.5,167C 345.663,165.989 345.33,164.822 345.5,163.5C 342.15,163.665 338.817,163.498 335.5,163C 334.257,161.846 333.257,160.512 332.5,159C 328.5,158.667 324.5,158.333 320.5,158C 319.663,156.989 319.33,155.822 319.5,154.5C 315.988,155.055 312.988,154.388 310.5,152.5 Z"/></g>
<g><path style="opacity:0.125" fill="#3b3b3b" d="M 359.5,167.5 C 360.552,168.53 361.886,169.197 363.5,169.5C 369.102,166.953 372.102,168.619 372.5,174.5C 376.49,173.81 380.49,173.643 384.5,174C 385.38,175.356 385.714,176.856 385.5,178.5C 390.294,177.903 394.627,178.57 398.5,180.5C 393.879,179.885 389.212,179.218 384.5,178.5C 384.167,177.833 383.833,177.167 383.5,176.5C 379.353,175.833 375.353,175.166 371.5,174.5C 371.461,173.417 371.127,172.417 370.5,171.5C 366.893,170.511 363.226,170.177 359.5,170.5C 359.5,169.5 359.5,168.5 359.5,167.5 Z"/></g>
<g><path style="opacity:0.667" fill="#c8c8c8" d="M 369.5,173.5 C 370.167,173.833 370.833,174.167 371.5,174.5C 375.353,175.166 379.353,175.833 383.5,176.5C 383.833,177.167 384.167,177.833 384.5,178.5C 389.212,179.218 393.879,179.885 398.5,180.5C 398.833,180.5 399.167,180.5 399.5,180.5C 400.641,182.549 400.641,184.549 399.5,186.5C 393.223,185.063 386.89,183.73 380.5,182.5C 381.246,181.264 381.579,179.93 381.5,178.5C 377.818,178.665 374.152,178.499 370.5,178C 369.62,176.644 369.286,175.144 369.5,173.5 Z"/></g>
<g><path style="opacity:0.977" fill="#fcfcfc" d="M 45.5,185.5 C 83.8348,185.333 122.168,185.5 160.5,186C 162.2,189.291 163.367,192.791 164,196.5C 164.893,205.995 165.727,215.495 166.5,225C 167.271,230.08 165.271,233.247 160.5,234.5C 160.167,234.5 159.833,234.5 159.5,234.5C 159.672,233.508 159.338,232.842 158.5,232.5C 155.992,230.763 152.992,229.93 149.5,230C 148.897,227.929 147.564,226.762 145.5,226.5C 142.642,225.834 139.642,225.167 136.5,224.5C 135.96,223.252 135.293,222.085 134.5,221C 131.833,220.667 129.167,220.333 126.5,220C 125.167,218.667 123.833,217.333 122.5,216C 118.514,215.501 114.514,215.334 110.5,215.5C 110.579,214.07 110.246,212.736 109.5,211.5C 105.833,210.833 102.167,210.167 98.5,209.5C 97.9598,208.252 97.2931,207.085 96.5,206C 91.8011,206.279 87.8011,204.945 84.5,202C 80.8484,201.501 77.1817,201.335 73.5,201.5C 73.6399,199.876 72.9733,198.71 71.5,198C 66.4671,197.829 61.4671,197.329 56.5,196.5C 55.9598,195.252 55.2931,194.085 54.5,193C 51.1832,192.502 47.8499,192.335 44.5,192.5C 44.5,191.5 44.5,190.5 44.5,189.5C 51.0075,189.408 51.0075,188.742 44.5,187.5C 44.3284,186.508 44.6618,185.842 45.5,185.5 Z"/></g>
<g><path style="opacity:0.167" fill="#4d4d4d" d="M 399.5,180.5 C 402.009,181.113 404.509,181.78 407,182.5C 407.667,184.833 407.667,187.167 407,189.5C 406.617,190.056 406.117,190.389 405.5,190.5C 402.15,190.665 398.817,190.498 395.5,190C 397.919,189.71 399.253,188.876 399.5,187.5C 399.5,187.167 399.5,186.833 399.5,186.5C 400.641,184.549 400.641,182.549 399.5,180.5 Z"/></g>
<g><path style="opacity:0.232" fill="#424242" d="M 39.5,183.5 C 42.1873,183.336 44.854,183.503 47.5,184C 46.5842,184.278 45.9175,184.778 45.5,185.5C 44.6618,185.842 44.3284,186.508 44.5,187.5C 42.9121,189.113 41.9121,191.113 41.5,193.5C 39.549,193.773 38.049,193.107 37,191.5C 36.3333,189.167 36.3333,186.833 37,184.5C 37.6708,183.748 38.5041,183.414 39.5,183.5 Z"/></g>
<g><path style="opacity:1" fill="#fcfcfc" d="M 220.5,187.5 C 240.167,187.5 259.833,187.5 279.5,187.5C 279.297,189.638 278.297,191.305 276.5,192.5C 254.207,208.954 232.041,225.621 210,242.5C 210.439,229.404 213.106,216.737 218,204.5C 219.319,198.894 220.153,193.227 220.5,187.5 Z"/></g>
<g><path style="opacity:0.009" fill="#060606" d="M 43.5,193.5 C 44.3149,194.429 45.1482,195.429 46,196.5C 49.686,194.937 52.8526,195.604 55.5,198.5C 51.8121,198.219 48.1454,197.719 44.5,197C 43.6634,195.989 43.33,194.822 43.5,193.5 Z"/></g>
<g><path style="opacity:0.116" fill="#252525" d="M 57.5,198.5 C 62.4053,199.445 67.4053,199.779 72.5,199.5C 72.33,200.822 72.6634,201.989 73.5,203C 76.8333,203.333 80.1667,203.667 83.5,204C 84.1667,205.333 84.8333,206.667 85.5,208C 89.211,208.175 92.8776,208.675 96.5,209.5C 96.8333,210.167 97.1667,210.833 97.5,211.5C 101.107,212.489 104.774,212.823 108.5,212.5C 108.5,213.833 108.5,215.167 108.5,216.5C 104.818,216.665 101.152,216.499 97.5,216C 95.1367,215.411 94.1367,213.911 94.5,211.5C 90.4547,211.358 86.6214,211.358 83,211.5C 80.4575,210.124 80.2908,208.957 82.5,208C 78.4423,207.66 74.4423,206.993 70.5,206C 69.6634,204.989 69.33,203.822 69.5,202.5C 65.1821,202.303 61.0155,202.303 57,202.5C 56.4209,201.072 56.5876,199.738 57.5,198.5 Z"/></g>
<g><path style="opacity:0.502" fill="#a8a8a8" d="M 44.5,187.5 C 51.0075,188.742 51.0075,189.408 44.5,189.5C 44.5,190.5 44.5,191.5 44.5,192.5C 47.8499,192.335 51.1832,192.502 54.5,193C 55.2931,194.085 55.9598,195.252 56.5,196.5C 61.4671,197.329 66.4671,197.829 71.5,198C 72.9733,198.71 73.6399,199.876 73.5,201.5C 77.1817,201.335 80.8484,201.501 84.5,202C 87.8011,204.945 91.8011,206.279 96.5,206C 97.2931,207.085 97.9598,208.252 98.5,209.5C 102.167,210.167 105.833,210.833 109.5,211.5C 110.246,212.736 110.579,214.07 110.5,215.5C 114.514,215.334 118.514,215.501 122.5,216C 123.833,217.333 125.167,218.667 126.5,220C 129.167,220.333 131.833,220.667 134.5,221C 135.293,222.085 135.96,223.252 136.5,224.5C 139.642,225.167 142.642,225.834 145.5,226.5C 142.833,226.5 140.167,226.5 137.5,226.5C 136.391,226.443 135.391,226.11 134.5,225.5C 134.5,224.5 134.5,223.5 134.5,222.5C 131.15,222.665 127.817,222.498 124.5,222C 122.5,221.333 121.167,220 120.5,218C 116.472,217.608 112.472,217.108 108.5,216.5C 108.5,215.167 108.5,213.833 108.5,212.5C 104.774,212.823 101.107,212.489 97.5,211.5C 97.1667,210.833 96.8333,210.167 96.5,209.5C 92.8776,208.675 89.211,208.175 85.5,208C 84.8333,206.667 84.1667,205.333 83.5,204C 80.1667,203.667 76.8333,203.333 73.5,203C 72.6634,201.989 72.33,200.822 72.5,199.5C 67.4053,199.779 62.4053,199.445 57.5,198.5C 56.8333,198.5 56.1667,198.5 55.5,198.5C 52.8526,195.604 49.686,194.937 46,196.5C 45.1482,195.429 44.3149,194.429 43.5,193.5C 42.8333,193.5 42.1667,193.5 41.5,193.5C 41.9121,191.113 42.9121,189.113 44.5,187.5 Z"/></g>
<g><path style="opacity:0.015" fill="#161616" d="M 108.5,216.5 C 112.472,217.108 116.472,217.608 120.5,218C 121.167,220 122.5,221.333 124.5,222C 127.817,222.498 131.15,222.665 134.5,222.5C 134.5,223.5 134.5,224.5 134.5,225.5C 129.154,226.146 124.154,225.312 119.5,223C 119.957,222.586 120.291,222.086 120.5,221.5C 116.204,220.672 111.871,220.172 107.5,220C 107.043,219.586 106.709,219.086 106.5,218.5C 107.243,217.818 107.909,217.151 108.5,216.5 Z"/></g>
<g><path style="opacity:0.125" fill="#5e5e5e" d="M 137.5,226.5 C 140.167,226.5 142.833,226.5 145.5,226.5C 147.564,226.762 148.897,227.929 149.5,230C 152.992,229.93 155.992,230.763 158.5,232.5C 154.958,232.813 151.625,232.479 148.5,231.5C 148.167,230.5 147.5,229.833 146.5,229.5C 146.389,228.883 146.056,228.383 145.5,228C 142.635,227.817 139.969,227.317 137.5,226.5 Z"/></g>
<g><path style="opacity:0.015" fill="#151315" d="M 134.5,225.5 C 135.391,226.11 136.391,226.443 137.5,226.5C 139.969,227.317 142.635,227.817 145.5,228C 146.056,228.383 146.389,228.883 146.5,229.5C 142.818,229.665 139.152,229.499 135.5,229C 133.627,228.047 133.294,226.88 134.5,225.5 Z"/></g>
<g><path style="opacity:0.016" fill="#090909" d="M 148.5,231.5 C 151.625,232.479 154.958,232.813 158.5,232.5C 159.338,232.842 159.672,233.508 159.5,234.5C 155.486,234.666 151.486,234.499 147.5,234C 146.117,232.539 146.451,231.706 148.5,231.5 Z"/></g>
<g><path style="opacity:0.973" fill="#fbfbfb" d="M 254.5,233.5 C 254.5,234.167 254.5,234.833 254.5,235.5C 253.279,236.028 252.113,236.695 251,237.5C 250.006,242.279 248.839,246.946 247.5,251.5C 245.027,251.088 243.694,252.088 243.5,254.5C 243.19,259.442 241.523,263.776 238.5,267.5C 238.5,267.833 238.5,268.167 238.5,268.5C 237.25,268.577 236.417,269.244 236,270.5C 235.503,272.81 235.337,275.143 235.5,277.5C 235.167,277.5 234.833,277.5 234.5,277.5C 228.36,280.009 225.693,284.675 226.5,291.5C 226.167,292.5 225.5,293.167 224.5,293.5C 222.629,293.859 221.129,294.859 220,296.5C 219.263,300.87 218.43,305.204 217.5,309.5C 217.167,310.833 216.833,312.167 216.5,313.5C 216.167,313.5 215.833,313.5 215.5,313.5C 214.811,312.226 213.977,312.226 213,313.5C 211.791,317.076 210.291,320.409 208.5,323.5C 208.5,324.167 208.5,324.833 208.5,325.5C 206.956,325.703 205.622,326.37 204.5,327.5C 203.647,330.478 202.981,333.478 202.5,336.5C 202.5,337.167 202.5,337.833 202.5,338.5C 197.587,340.395 195.087,344.062 195,349.5C 193.8,351.412 192.133,352.745 190,353.5C 189.668,357.695 188.835,361.695 187.5,365.5C 187.167,365.5 186.833,365.5 186.5,365.5C 184.678,365.169 183.011,364.502 181.5,363.5C 184.514,349.615 187.014,335.615 189,321.5C 195.276,296.826 201.443,272.16 207.5,247.5C 214.053,245.361 220.72,243.528 227.5,242C 236.449,238.03 245.449,235.197 254.5,233.5 Z"/></g>
<g><path style="opacity:0.098" fill="#585858" d="M 257.5,239.5 C 257.633,242.925 256.967,243.258 255.5,240.5C 255.678,239.305 256.011,238.138 256.5,237C 256.164,235.97 255.497,235.47 254.5,235.5C 254.5,234.833 254.5,234.167 254.5,233.5C 255.583,233.461 256.583,233.127 257.5,232.5C 258.575,234.811 258.575,237.144 257.5,239.5 Z"/></g>
<g><path style="opacity:0.478" fill="#cacaca" d="M 254.5,235.5 C 255.497,235.47 256.164,235.97 256.5,237C 256.011,238.138 255.678,239.305 255.5,240.5C 254.178,240.33 253.011,240.663 252,241.5C 252.268,246.296 250.768,250.296 247.5,253.5C 246.041,253.433 244.708,253.766 243.5,254.5C 243.694,252.088 245.027,251.088 247.5,251.5C 248.839,246.946 250.006,242.279 251,237.5C 252.113,236.695 253.279,236.028 254.5,235.5 Z"/></g>
<g><path style="opacity:0.086" fill="#2d2d2d" d="M 255.5,240.5 C 254.941,246.016 253.107,251.016 250,255.5C 249.292,254.619 248.458,253.953 247.5,253.5C 250.768,250.296 252.268,246.296 252,241.5C 253.011,240.663 254.178,240.33 255.5,240.5 Z"/></g>
<g><path style="opacity:0.017" fill="#191919" d="M 247.5,254.5 C 247.829,257.228 247.163,259.562 245.5,261.5C 243.919,258.572 244.585,256.239 247.5,254.5 Z"/></g>
<g><path style="opacity:0.009" fill="#131313" d="M 244.5,263.5 C 245.885,267.013 244.552,268.68 240.5,268.5C 240.715,270.179 240.048,271.179 238.5,271.5C 238.5,270.5 238.5,269.5 238.5,268.5C 238.5,268.167 238.5,267.833 238.5,267.5C 240.873,266.797 242.873,265.464 244.5,263.5 Z"/></g>
<g><path style="opacity:0.047" fill="#8d8d8d" d="M 247.5,253.5 C 247.5,253.833 247.5,254.167 247.5,254.5C 244.585,256.239 243.919,258.572 245.5,261.5C 245.672,262.492 245.338,263.158 244.5,263.5C 242.873,265.464 240.873,266.797 238.5,267.5C 241.523,263.776 243.19,259.442 243.5,254.5C 244.708,253.766 246.041,253.433 247.5,253.5 Z"/></g>
<g><path style="opacity:0.18" fill="#616161" d="M 238.5,268.5 C 238.5,269.5 238.5,270.5 238.5,271.5C 238.5,272.5 238.5,273.5 238.5,274.5C 237.728,275.694 236.728,276.694 235.5,277.5C 235.337,275.143 235.503,272.81 236,270.5C 236.417,269.244 237.25,268.577 238.5,268.5 Z"/></g>
<g><path style="opacity:0.012" fill="#0c0807" d="M 238.5,274.5 C 238.982,279.682 236.649,282.349 231.5,282.5C 233.279,281.33 234.279,279.664 234.5,277.5C 234.833,277.5 235.167,277.5 235.5,277.5C 236.728,276.694 237.728,275.694 238.5,274.5 Z"/></g>
<g><path style="opacity:0.169" fill="#8d8d8d" d="M 234.5,277.5 C 234.279,279.664 233.279,281.33 231.5,282.5C 230.503,282.47 229.836,282.97 229.5,284C 229.287,287.026 228.287,289.526 226.5,291.5C 225.693,284.675 228.36,280.009 234.5,277.5 Z"/></g>
<g><path style="opacity:0.024" fill="#373737" d="M 231.5,282.5 C 231.88,287.203 230.88,291.537 228.5,295.5C 227.575,296.641 226.741,296.641 226,295.5C 224.125,299.314 222.792,303.314 222,307.5C 221.583,308.756 220.75,309.423 219.5,309.5C 219.426,303.447 221.093,298.114 224.5,293.5C 225.5,293.167 226.167,292.5 226.5,291.5C 228.287,289.526 229.287,287.026 229.5,284C 229.836,282.97 230.503,282.47 231.5,282.5 Z"/></g>
<g><path style="opacity:0.086" fill="#9c9c9c" d="M 224.5,293.5 C 221.093,298.114 219.426,303.447 219.5,309.5C 218.833,309.5 218.167,309.5 217.5,309.5C 218.43,305.204 219.263,300.87 220,296.5C 221.129,294.859 222.629,293.859 224.5,293.5 Z"/></g>
<g><path style="opacity:0.009" fill="#151515" d="M 215.5,313.5 C 215.833,313.5 216.167,313.5 216.5,313.5C 216.505,317.227 215.171,320.227 212.5,322.5C 211.957,322.44 211.624,322.107 211.5,321.5C 212.71,318.716 214.043,316.049 215.5,313.5 Z"/></g>
<g><path style="opacity:0.024" fill="#868686" d="M 215.5,313.5 C 214.043,316.049 212.71,318.716 211.5,321.5C 211.624,322.107 211.957,322.44 212.5,322.5C 211.432,323.434 210.099,323.768 208.5,323.5C 210.291,320.409 211.791,317.076 213,313.5C 213.977,312.226 214.811,312.226 215.5,313.5 Z"/></g>
<g><path style="opacity:0.004" fill="#000000" d="M 210.5,326.5 C 210.897,325.475 211.563,325.308 212.5,326C 211.906,326.464 211.239,326.631 210.5,326.5 Z"/></g>
<g><path style="opacity:0.02" fill="#242424" d="M 208.5,326.5 C 208.529,330.14 207.529,333.473 205.5,336.5C 204.743,337.773 204.077,337.773 203.5,336.5C 205.068,334.189 205.902,331.522 206,328.5C 206.708,327.619 207.542,326.953 208.5,326.5 Z"/></g>
<g><path style="opacity:0.024" fill="#787878" d="M 208.5,325.5 C 208.5,325.833 208.5,326.167 208.5,326.5C 207.542,326.953 206.708,327.619 206,328.5C 205.902,331.522 205.068,334.189 203.5,336.5C 203.167,336.5 202.833,336.5 202.5,336.5C 202.981,333.478 203.647,330.478 204.5,327.5C 205.622,326.37 206.956,325.703 208.5,325.5 Z"/></g>
<g><path style="opacity:0.018" fill="#464646" d="M 202.5,338.5 C 200.519,341.843 199.353,345.509 199,349.5C 197.017,350.982 195.184,352.649 193.5,354.5C 193.254,359.556 191.421,363.889 188,367.5C 187.536,366.906 187.369,366.239 187.5,365.5C 188.835,361.695 189.668,357.695 190,353.5C 192.133,352.745 193.8,351.412 195,349.5C 195.087,344.062 197.587,340.395 202.5,338.5 Z"/></g>
<g><path style="opacity:0.23" fill="#474747" d="M 181.5,363.5 C 183.011,364.502 184.678,365.169 186.5,365.5C 186.5,367.167 186.5,368.833 186.5,370.5C 183.5,370.5 180.5,370.5 177.5,370.5C 177.372,368.345 177.872,366.345 179,364.5C 180.461,365.883 181.294,365.549 181.5,363.5 Z"/></g>
</svg>
